<svg width="24" height="24" viewBox="0 0 24 24" fill="none" xmlns="http://www.w3.org/2000/svg">
<path fill-rule="evenodd" clip-rule="evenodd" d="M12 24C9.62662 24 7.30651 23.2962 5.33312 21.9776C3.35973 20.6591 1.8217 18.7849 0.913445 16.5922C0.00519377 14.3995 -0.232439 11.9867 0.230584 9.65893C0.693607 7.33115 1.83653 5.19296 3.51476 3.51473C5.19299 1.8365 7.33116 0.693603 9.65893 0.23058C11.9867 -0.232443 14.3994 0.00520509 16.5922 0.913457C18.7849 1.82171 20.6591 3.35977 21.9777 5.33316C23.2962 7.30655 24 9.62663 24 12C24 15.1826 22.7357 18.2348 20.4852 20.4853C18.2348 22.7357 15.1826 24 12 24ZM12 2C10.0222 2 8.08882 2.58649 6.44433 3.68531C4.79984 4.78412 3.5181 6.34592 2.76122 8.17318C2.00435 10.0004 1.80628 12.0111 2.19213 13.9509C2.57798 15.8907 3.53042 17.6726 4.92895 19.0711C6.32747 20.4696 8.10926 21.422 10.0491 21.8078C11.9889 22.1937 13.9995 21.9957 15.8268 21.2388C17.654 20.4819 19.2159 19.2002 20.3147 17.5557C21.4135 15.9112 22 13.9778 22 12C22 9.34784 20.9464 6.80429 19.071 4.92893C17.1957 3.05357 14.6522 2 12 2ZM14.23 15.7L11.3 12.761C11.198 12.6607 11.1184 12.5398 11.0666 12.4063C11.0149 12.2729 10.9922 12.1299 11 11.987V7C11 6.73479 11.1053 6.48043 11.2928 6.2929C11.4804 6.10536 11.7348 6 12 6C12.2652 6 12.5196 6.10536 12.7071 6.2929C12.8947 6.48043 13 6.73479 13 7V11.531L15.6999 14.231C15.7964 14.3275 15.873 14.4421 15.9252 14.5682C15.9773 14.6943 16.0042 14.8294 16.0041 14.9659C16.0041 15.1023 15.9771 15.2374 15.9248 15.3635C15.8725 15.4895 15.796 15.604 15.6995 15.7005C15.6029 15.797 15.4884 15.8735 15.3623 15.9256C15.2362 15.9778 15.101 16.0046 14.9646 16.0046C14.8281 16.0046 14.6931 15.9776 14.567 15.9254C14.441 15.8731 14.3264 15.7965 14.23 15.7Z" fill="black"/>
</svg>
