<svg width="24" height="23" viewBox="0 0 24 23" fill="none" xmlns="http://www.w3.org/2000/svg">
<path d="M23.151 2.7653L16.698 0.182304C16.0894 -0.060768 15.4106 -0.060768 14.802 0.182304L8.313 2.7773H8.25H8.187L1.85101 0.245304C1.64615 0.163431 1.42434 0.133012 1.205 0.156709C0.985663 0.180406 0.775473 0.257496 0.592825 0.381235C0.410178 0.504973 0.260639 0.671589 0.157293 0.866502C0.0539476 1.06142 -5.47463e-05 1.27869 1.15353e-05 1.4993V18.2093C-0.00110856 18.4791 0.0793685 18.7429 0.230881 18.9662C0.382394 19.1894 0.597863 19.3617 0.84901 19.4603L7.302 22.0433C7.91045 22.2873 8.58955 22.2873 9.198 22.0433L15.75 19.4183L22.149 21.9803C22.3539 22.0614 22.5755 22.0912 22.7945 22.0672C23.0135 22.0432 23.2234 21.966 23.4058 21.8424C23.5883 21.7188 23.7378 21.5525 23.8413 21.358C23.9449 21.1635 23.9993 20.9466 24 20.7263V4.0193C24.0017 3.74898 23.9215 3.48448 23.77 3.26063C23.6184 3.03678 23.4026 2.86409 23.151 2.7653ZM1.50001 18.1043V1.7183L7.5 4.1183V20.5043L1.50001 18.1043ZM9 20.5043V4.1183L15 1.7183V18.1043L9 20.5043ZM22.5 20.5043L16.5 18.1043V1.7183L22.5 4.1183V20.5043Z" fill="black"/>
</svg>
