<svg width="459" height="326" viewBox="0 0 459 326" fill="none" xmlns="http://www.w3.org/2000/svg">
<path d="M40.86 13.04H36.072V29H32.516V13.04H27.728V10.128H40.86V13.04ZM55.6869 29H52.3269V20.292C52.3269 19.396 52.0935 18.696 51.6269 18.192C51.1789 17.688 50.5722 17.436 49.8069 17.436C49.0415 17.436 48.3322 17.744 47.6789 18.36C47.0442 18.976 46.7269 19.984 46.7269 21.384V29H43.3669V9.204H46.7269V17.212C47.4922 15.4947 48.9389 14.636 51.0669 14.636C52.4482 14.636 53.5589 15.0747 54.3989 15.952C55.2575 16.8107 55.6869 18.0613 55.6869 19.704V29ZM67.7389 20.32C67.7016 19.4053 67.4496 18.6773 66.9829 18.136C66.5349 17.576 65.8909 17.296 65.0509 17.296C64.2109 17.296 63.4922 17.5947 62.8949 18.192C62.3162 18.7707 61.9429 19.62 61.7749 20.74H67.7389V20.32ZM65.7509 29.14C63.4922 29.14 61.7096 28.468 60.4029 27.124C59.0962 25.78 58.4429 24.016 58.4429 21.832C58.4429 19.6293 59.0589 17.884 60.2909 16.596C61.5229 15.308 63.0629 14.664 64.9109 14.664C66.7589 14.664 68.2242 15.224 69.3069 16.344C70.3896 17.464 70.9309 19.0973 70.9309 21.244C70.9309 21.7667 70.8656 22.4387 70.7349 23.26H61.8309C62.0736 24.2867 62.5776 25.0707 63.3429 25.612C64.1269 26.1533 65.1816 26.424 66.5069 26.424C67.8322 26.424 69.0082 26.0507 70.0349 25.304V28.216C69.0456 28.832 67.6176 29.14 65.7509 29.14ZM94.1512 29H90.7632V20.292C90.7632 18.388 90.0352 17.436 88.5792 17.436C87.8512 17.436 87.1979 17.7533 86.6192 18.388C86.0592 19.0227 85.7792 20.0213 85.7792 21.384V29H82.3912V20.292C82.3912 18.388 81.6632 17.436 80.2072 17.436C79.4792 17.436 78.8259 17.7533 78.2472 18.388C77.6686 19.0227 77.3792 20.0213 77.3792 21.384V29H74.0192V14.804H77.3792V17.044C78.1819 15.4387 79.5632 14.636 81.5232 14.636C83.5019 14.636 84.7992 15.532 85.4152 17.324C85.7886 16.4653 86.3486 15.8027 87.0952 15.336C87.8419 14.8693 88.6912 14.636 89.6432 14.636C91.0806 14.636 92.1912 15.0747 92.9752 15.952C93.7592 16.8107 94.1512 18.0427 94.1512 19.648V29ZM106.157 20.32C106.12 19.4053 105.868 18.6773 105.401 18.136C104.953 17.576 104.309 17.296 103.469 17.296C102.629 17.296 101.91 17.5947 101.313 18.192C100.734 18.7707 100.361 19.62 100.193 20.74H106.157V20.32ZM104.169 29.14C101.91 29.14 100.128 28.468 98.8209 27.124C97.5142 25.78 96.8609 24.016 96.8609 21.832C96.8609 19.6293 97.4769 17.884 98.7089 16.596C99.9409 15.308 101.481 14.664 103.329 14.664C105.177 14.664 106.642 15.224 107.725 16.344C108.808 17.464 109.349 19.0973 109.349 21.244C109.349 21.7667 109.284 22.4387 109.153 23.26H100.249C100.492 24.2867 100.996 25.0707 101.761 25.612C102.545 26.1533 103.6 26.424 104.925 26.424C106.25 26.424 107.426 26.0507 108.453 25.304V28.216C107.464 28.832 106.036 29.14 104.169 29.14ZM125.515 17.324C124.413 17.324 123.573 17.7627 122.995 18.64C122.435 19.5173 122.155 20.6187 122.155 21.944C122.155 23.2507 122.444 24.3427 123.023 25.22C123.601 26.0973 124.432 26.536 125.515 26.536C126.597 26.536 127.419 26.1067 127.979 25.248C128.539 24.3893 128.819 23.288 128.819 21.944C128.819 20.6 128.548 19.4987 128.007 18.64C127.465 17.7627 126.635 17.324 125.515 17.324ZM125.543 14.58C127.671 14.58 129.332 15.2707 130.527 16.652C131.721 18.0147 132.319 19.76 132.319 21.888C132.319 24.016 131.712 25.7707 130.499 27.152C129.304 28.5333 127.624 29.224 125.459 29.224C123.312 29.224 121.632 28.552 120.419 27.208C119.224 25.864 118.627 24.128 118.627 22C118.627 19.872 119.252 18.108 120.503 16.708C121.753 15.2893 123.433 14.58 125.543 14.58ZM142.495 17.324H139.667V29H136.307V17.324H134.235V14.804H136.307V13.964C136.307 12.3773 136.745 11.136 137.623 10.24C138.5 9.344 139.713 8.896 141.263 8.896C141.972 8.896 142.588 8.98 143.111 9.148V11.976C142.625 11.7893 142.159 11.696 141.711 11.696C140.348 11.696 139.667 12.4613 139.667 13.992V14.804H142.495V17.324ZM156.995 29.14C153.934 29.14 152.403 27.5907 152.403 24.492V17.324H150.275V14.804H152.403V11.388H155.763V14.804H159.291V17.324H155.763V24.548C155.763 25.1453 155.922 25.6027 156.239 25.92C156.557 26.2187 157.033 26.368 157.667 26.368C158.302 26.368 158.918 26.172 159.515 25.78V28.664C158.862 28.9813 158.022 29.14 156.995 29.14ZM174.605 29H171.245V20.292C171.245 19.396 171.012 18.696 170.545 18.192C170.097 17.688 169.49 17.436 168.725 17.436C167.96 17.436 167.25 17.744 166.597 18.36C165.962 18.976 165.645 19.984 165.645 21.384V29H162.285V9.204H165.645V17.212C166.41 15.4947 167.857 14.636 169.985 14.636C171.366 14.636 172.477 15.0747 173.317 15.952C174.176 16.8107 174.605 18.0613 174.605 19.704V29ZM179.937 8.532C180.497 8.532 180.973 8.728 181.365 9.12C181.757 9.512 181.953 9.99733 181.953 10.576C181.953 11.136 181.757 11.612 181.365 12.004C180.973 12.396 180.497 12.592 179.937 12.592C179.377 12.592 178.901 12.396 178.509 12.004C178.117 11.612 177.921 11.136 177.921 10.576C177.921 9.99733 178.117 9.512 178.509 9.12C178.901 8.728 179.377 8.532 179.937 8.532ZM181.617 29H178.257V14.804H181.617V29ZM194.658 24.912C194.658 26.2373 194.182 27.2733 193.23 28.02C192.278 28.7667 190.962 29.14 189.282 29.14C187.621 29.14 186.249 28.8507 185.166 28.272V25.192C186.417 26.032 187.77 26.452 189.226 26.452C189.842 26.452 190.318 26.34 190.654 26.116C191.009 25.8733 191.186 25.5933 191.186 25.276C191.186 24.94 191.13 24.6787 191.018 24.492C190.906 24.2867 190.692 24.0907 190.374 23.904C189.964 23.6613 189.544 23.456 189.114 23.288C188.704 23.1013 188.48 22.9987 188.442 22.98C188.424 22.9613 188.386 22.9427 188.33 22.924C188.274 22.9053 188.228 22.8867 188.19 22.868C186.118 21.9347 185.082 20.5907 185.082 18.836C185.082 17.5293 185.577 16.5027 186.566 15.756C187.556 15.0093 188.778 14.636 190.234 14.636C191.709 14.636 192.922 14.8413 193.874 15.252V18.22C192.941 17.66 191.774 17.38 190.374 17.38C189.796 17.38 189.338 17.5107 189.002 17.772C188.685 18.0147 188.526 18.332 188.526 18.724C188.526 19.0413 188.61 19.284 188.778 19.452C188.946 19.62 189.086 19.7507 189.198 19.844C189.31 19.9373 189.469 20.04 189.674 20.152C190.178 20.3947 190.561 20.572 190.822 20.684C192.11 21.2253 193.072 21.832 193.706 22.504C194.341 23.1573 194.658 23.96 194.658 24.912ZM205.069 34.292C204.528 34.292 204.061 34.2453 203.669 34.152V31.38C203.968 31.4547 204.285 31.492 204.621 31.492C206.32 31.492 207.524 30.568 208.233 28.72L202.633 14.804H206.357C208.485 20.6653 209.661 24.016 209.885 24.856C209.941 24.6507 211.033 21.3 213.161 14.804H216.689L211.565 28.608C210.146 32.3973 207.981 34.292 205.069 34.292ZM227.29 20.32C227.252 19.4053 227 18.6773 226.534 18.136C226.086 17.576 225.442 17.296 224.602 17.296C223.762 17.296 223.043 17.5947 222.446 18.192C221.867 18.7707 221.494 19.62 221.326 20.74H227.29V20.32ZM225.302 29.14C223.043 29.14 221.26 28.468 219.954 27.124C218.647 25.78 217.994 24.016 217.994 21.832C217.994 19.6293 218.61 17.884 219.842 16.596C221.074 15.308 222.614 14.664 224.462 14.664C226.31 14.664 227.775 15.224 228.858 16.344C229.94 17.464 230.482 19.0973 230.482 21.244C230.482 21.7667 230.416 22.4387 230.286 23.26H221.382C221.624 24.2867 222.128 25.0707 222.894 25.612C223.678 26.1533 224.732 26.424 226.058 26.424C227.383 26.424 228.559 26.0507 229.586 25.304V28.216C228.596 28.832 227.168 29.14 225.302 29.14ZM237.266 29.112C235.922 29.112 234.849 28.72 234.046 27.936C233.262 27.152 232.87 26.1253 232.87 24.856C232.87 23.5867 233.374 22.5693 234.382 21.804C235.39 21.0387 236.846 20.656 238.75 20.656H240.822V19.788C240.822 19.004 240.617 18.4067 240.206 17.996C239.795 17.5853 239.095 17.38 238.106 17.38C236.594 17.38 235.203 17.8 233.934 18.64V15.532C234.998 14.8787 236.529 14.552 238.526 14.552C242.371 14.552 244.294 16.344 244.294 19.928V29H240.962V27.292C240.309 28.5053 239.077 29.112 237.266 29.112ZM238.442 26.62C239.189 26.62 239.767 26.4053 240.178 25.976C240.607 25.528 240.822 24.9493 240.822 24.24V22.896H239.086C238.209 22.896 237.537 23.0827 237.07 23.456C236.603 23.8107 236.37 24.268 236.37 24.828C236.37 26.0227 237.061 26.62 238.442 26.62ZM251.121 29H247.733L247.761 14.804H251.121V17.324C251.775 15.5693 252.969 14.692 254.705 14.692C255.097 14.692 255.415 14.72 255.657 14.776V18.024C255.228 17.8373 254.752 17.744 254.229 17.744C253.315 17.744 252.568 18.1173 251.989 18.864C251.411 19.6107 251.121 20.544 251.121 21.664V29Z" fill="black"/>
<mask id="mask0" mask-type="alpha" maskUnits="userSpaceOnUse" x="48" y="42" width="392" height="45">
<rect width="390.548" height="43.8654" transform="matrix(1 0 0 -1 48.613 86.7339)" fill="white"/>
</mask>
<g mask="url(#mask0)">
<path d="M128.263 47.0497V113.868H115.221V71.1497L91.4044 94.7772L67.6825 71.1497V113.868H54.5456V47.0497H61.8229L91.4044 76.4423L121.081 47.0497H128.263ZM178.156 114.53C173.997 114.53 169.933 113.742 165.964 112.167C161.994 110.592 158.435 108.387 155.284 105.551C152.197 102.653 149.708 99.1876 147.818 95.1552C145.928 91.0598 144.983 86.4918 144.983 81.4513C144.983 77.1038 145.802 72.9139 147.44 68.8815C149.141 64.8491 151.472 61.3207 154.434 58.2964C157.395 55.2091 160.892 52.7518 164.924 50.9246C168.957 49.0974 173.367 48.1838 178.156 48.1838C182.377 48.1838 186.472 49.0029 190.442 50.6411C194.474 52.2793 198.003 54.579 201.027 57.5403C204.114 60.5016 206.572 64.03 208.399 68.1254C210.289 72.1578 211.234 76.5998 211.234 81.4513C211.234 85.7357 210.415 89.8627 208.777 93.8321C207.139 97.8015 204.839 101.33 201.878 104.417C198.979 107.505 195.482 109.962 191.387 111.789C187.355 113.616 182.944 114.53 178.156 114.53ZM178.156 61.1317C175.32 61.1317 172.674 61.6672 170.217 62.7384C167.759 63.8095 165.617 65.2901 163.79 67.1803C161.963 69.0075 160.514 71.1497 159.443 73.607C158.372 76.0642 157.836 78.679 157.836 81.4513C157.836 84.2236 158.372 86.8384 159.443 89.2956C160.514 91.7529 161.963 93.8951 163.79 95.7223C165.617 97.5495 167.759 98.9986 170.217 100.07C172.737 101.078 175.383 101.582 178.156 101.582C180.928 101.582 183.511 101.046 185.905 99.9752C188.363 98.9041 190.505 97.455 192.332 95.6278C194.159 93.8006 195.608 91.6899 196.679 89.2956C197.751 86.8384 198.286 84.2236 198.286 81.4513C198.286 78.679 197.751 76.0642 196.679 73.607C195.608 71.1497 194.128 69.0075 192.238 67.1803C190.41 65.2901 188.268 63.8095 185.811 62.7384C183.417 61.6672 180.865 61.1317 178.156 61.1317ZM244.973 114.53C242.074 114.53 239.27 114.12 236.561 113.301C233.852 112.482 231.3 111.316 228.906 109.804H229C227.299 108.733 225.787 107.568 224.464 106.307C223.141 105.047 222.227 104.134 221.723 103.567L231.552 94.4937C231.993 95.0607 232.686 95.7538 233.631 96.5729C234.639 97.3289 235.774 98.085 237.034 98.8411C238.294 99.5342 239.617 100.133 241.003 100.637C242.389 101.141 243.712 101.393 244.973 101.393C246.044 101.393 247.115 101.267 248.186 101.015C249.257 100.763 250.234 100.385 251.116 99.8807C251.998 99.3137 252.722 98.5891 253.289 97.707C253.856 96.8249 254.14 95.7223 254.14 94.3991C254.14 93.8951 253.951 93.3595 253.573 92.7925C253.258 92.1624 252.659 91.5008 251.777 90.8078C250.958 90.1147 249.793 89.3901 248.28 88.634C246.768 87.815 244.878 86.9644 242.61 86.0823C239.964 85.0742 237.506 84.0031 235.238 82.8689C232.97 81.6718 230.985 80.2857 229.284 78.7105C227.646 77.1354 226.354 75.3397 225.409 73.3235C224.527 71.3072 224.086 68.976 224.086 66.3297C224.086 63.6205 224.59 61.1002 225.598 58.7689C226.606 56.3747 228.024 54.327 229.851 52.6258C231.741 50.8616 233.978 49.507 236.561 48.5619C239.207 47.5538 242.106 47.0497 245.256 47.0497C246.957 47.0497 248.753 47.2703 250.643 47.7113C252.596 48.1523 254.487 48.7194 256.314 49.4125C258.141 50.1055 259.842 50.9246 261.417 51.8697C263.055 52.7518 264.41 53.6654 265.481 54.6105L257.353 64.8176C256.156 63.9985 254.928 63.2424 253.667 62.5493C252.596 61.9823 251.368 61.4467 249.982 60.9427C248.595 60.4386 247.178 60.1866 245.729 60.1866C243.082 60.1866 241.003 60.7221 239.491 61.7933C238.042 62.8014 237.317 64.282 237.317 66.2352C237.317 67.1173 237.569 67.9364 238.073 68.6925C238.64 69.3855 239.365 70.0471 240.247 70.6772C241.192 71.2442 242.263 71.7798 243.46 72.2838C244.658 72.7879 245.918 73.2605 247.241 73.7015C251.021 75.1506 254.203 76.6313 256.786 78.1435C259.37 79.5926 261.449 81.1678 263.024 82.8689C264.599 84.5071 265.702 86.3028 266.332 88.256C267.025 90.1462 267.371 92.2254 267.371 94.4937C267.371 97.2659 266.804 99.8807 265.67 102.338C264.536 104.795 262.961 106.937 260.945 108.765C258.991 110.529 256.629 111.946 253.856 113.018C251.147 114.026 248.186 114.53 244.973 114.53ZM309.811 47.0497L339.582 113.868H325.122L319.735 101.771H294.501C293.682 103.661 292.768 105.709 291.76 107.914C290.815 110.056 289.964 112.041 289.208 113.868H274.843L304.235 47.0497H309.811ZM313.875 88.634L307.071 73.3235L300.266 88.634H313.875ZM351.073 113.868V47.7113H364.115V113.868H351.073ZM437.739 102.811C434.022 106.528 429.989 109.426 425.642 111.505C421.358 113.522 416.821 114.53 412.033 114.53C406.929 114.53 402.298 113.585 398.14 111.694C393.981 109.741 390.421 107.189 387.46 104.039C384.562 100.889 382.325 97.2974 380.75 93.265C379.175 89.2326 378.387 85.1057 378.387 80.8842C378.387 75.9697 379.301 71.4333 381.128 67.2748C383.018 63.1164 385.507 59.5565 388.594 56.5952C391.745 53.5709 395.336 51.2397 399.368 49.6015C403.464 47.9003 407.685 47.0497 412.033 47.0497C416.443 47.0497 420.791 47.9948 425.075 49.885C429.422 51.7122 433.297 54.3585 436.7 57.8238L427.532 67.0858C425.327 64.8806 422.87 63.1794 420.16 61.9823C417.514 60.7852 414.805 60.1866 412.033 60.1866C409.197 60.1866 406.52 60.7537 403.999 61.8878C401.542 62.9589 399.368 64.4395 397.478 66.3297C395.651 68.1569 394.202 70.3306 393.131 72.8509C392.06 75.3712 391.524 78.0489 391.524 80.8842C391.524 83.7195 392.06 86.3973 393.131 88.9176C394.202 91.3748 395.651 93.5486 397.478 95.4388C399.368 97.2659 401.542 98.7151 403.999 99.7862C406.52 100.857 409.197 101.393 412.033 101.393C415.183 101.393 418.081 100.731 420.728 99.4082C423.437 98.022 426.02 96.1003 428.477 93.6431L437.739 102.811Z" fill="black"/>
</g>
<mask id="mask1" mask-type="alpha" maskUnits="userSpaceOnUse" x="27" y="285" width="401" height="42">
<rect width="400.185" height="40.8746" transform="matrix(1 0 0 -1 27 326)" fill="white"/>
</mask>
<g mask="url(#mask1)">
<path d="M111.109 249.429V316.247H98.0669V273.529L74.2504 297.156L50.5284 273.529V316.247H37.3916V249.429H44.6688L74.2504 278.821L103.926 249.429H111.109ZM161.002 316.909C156.843 316.909 152.779 316.121 148.81 314.546C144.84 312.971 141.28 310.766 138.13 307.93C135.043 305.032 132.554 301.567 130.664 297.534C128.774 293.439 127.829 288.871 127.829 283.83C127.829 279.483 128.648 275.293 130.286 271.26C131.987 267.228 134.318 263.7 137.28 260.675C140.241 257.588 143.738 255.131 147.77 253.304C151.803 251.476 156.213 250.563 161.002 250.563C165.223 250.563 169.318 251.382 173.288 253.02C177.32 254.658 180.849 256.958 183.873 259.919C186.96 262.881 189.417 266.409 191.245 270.504C193.135 274.537 194.08 278.979 194.08 283.83C194.08 288.115 193.261 292.242 191.623 296.211C189.985 300.18 187.685 303.709 184.723 306.796C181.825 309.883 178.328 312.341 174.233 314.168C170.2 315.995 165.79 316.909 161.002 316.909ZM161.002 263.511C158.166 263.511 155.52 264.046 153.063 265.117C150.605 266.188 148.463 267.669 146.636 269.559C144.809 271.386 143.36 273.529 142.289 275.986C141.217 278.443 140.682 281.058 140.682 283.83C140.682 286.602 141.217 289.217 142.289 291.675C143.36 294.132 144.809 296.274 146.636 298.101C148.463 299.928 150.605 301.378 153.063 302.449C155.583 303.457 158.229 303.961 161.002 303.961C163.774 303.961 166.357 303.425 168.751 302.354C171.209 301.283 173.351 299.834 175.178 298.007C177.005 296.179 178.454 294.069 179.525 291.675C180.597 289.217 181.132 286.602 181.132 283.83C181.132 281.058 180.597 278.443 179.525 275.986C178.454 273.529 176.974 271.386 175.083 269.559C173.256 267.669 171.114 266.188 168.657 265.117C166.263 264.046 163.711 263.511 161.002 263.511ZM227.818 316.909C224.92 316.909 222.116 316.499 219.407 315.68C216.698 314.861 214.146 313.695 211.752 312.183H211.846C210.145 311.112 208.633 309.946 207.31 308.686C205.987 307.426 205.073 306.513 204.569 305.946L214.398 296.873C214.839 297.44 215.532 298.133 216.477 298.952C217.485 299.708 218.62 300.464 219.88 301.22C221.14 301.913 222.463 302.512 223.849 303.016C225.235 303.52 226.558 303.772 227.818 303.772C228.89 303.772 229.961 303.646 231.032 303.394C232.103 303.142 233.08 302.764 233.962 302.26C234.844 301.693 235.568 300.968 236.135 300.086C236.702 299.204 236.986 298.101 236.986 296.778C236.986 296.274 236.797 295.738 236.419 295.171C236.104 294.541 235.505 293.88 234.623 293.187C233.804 292.494 232.638 291.769 231.126 291.013C229.614 290.194 227.724 289.343 225.456 288.461C222.809 287.453 220.352 286.382 218.084 285.248C215.816 284.051 213.831 282.665 212.13 281.089C210.492 279.514 209.2 277.719 208.255 275.702C207.373 273.686 206.932 271.355 206.932 268.709C206.932 265.999 207.436 263.479 208.444 261.148C209.452 258.754 210.87 256.706 212.697 255.005C214.587 253.241 216.824 251.886 219.407 250.941C222.053 249.933 224.952 249.429 228.102 249.429C229.803 249.429 231.599 249.649 233.489 250.09C235.442 250.531 237.332 251.098 239.16 251.791C240.987 252.484 242.688 253.304 244.263 254.249C245.901 255.131 247.256 256.044 248.327 256.989L240.199 267.196C239.002 266.377 237.774 265.621 236.513 264.928C235.442 264.361 234.214 263.826 232.828 263.322C231.441 262.818 230.024 262.566 228.575 262.566C225.928 262.566 223.849 263.101 222.337 264.172C220.888 265.18 220.163 266.661 220.163 268.614C220.163 269.496 220.415 270.315 220.919 271.071C221.486 271.764 222.211 272.426 223.093 273.056C224.038 273.623 225.109 274.159 226.306 274.663C227.503 275.167 228.764 275.639 230.087 276.08C233.867 277.53 237.049 279.01 239.632 280.522C242.215 281.972 244.295 283.547 245.87 285.248C247.445 286.886 248.548 288.682 249.178 290.635C249.871 292.525 250.217 294.604 250.217 296.873C250.217 299.645 249.65 302.26 248.516 304.717C247.382 307.174 245.807 309.316 243.791 311.144C241.837 312.908 239.475 314.325 236.702 315.396C233.993 316.405 231.032 316.909 227.818 316.909ZM292.657 249.429L322.428 316.247H307.968L302.581 304.15H277.347C276.528 306.04 275.614 308.088 274.606 310.293C273.661 312.435 272.81 314.42 272.054 316.247H257.689L287.081 249.429H292.657ZM296.721 291.013L289.917 275.702L283.112 291.013H296.721ZM333.919 316.247V250.09H346.961V316.247H333.919ZM420.585 305.189C416.868 308.907 412.835 311.805 408.488 313.884C404.204 315.901 399.667 316.909 394.879 316.909C389.775 316.909 385.144 315.964 380.986 314.073C376.827 312.12 373.267 309.568 370.306 306.418C367.408 303.268 365.171 299.676 363.596 295.644C362.021 291.612 361.233 287.485 361.233 283.263C361.233 278.349 362.147 273.812 363.974 269.654C365.864 265.495 368.353 261.935 371.44 258.974C374.59 255.95 378.182 253.619 382.214 251.98C386.31 250.279 390.531 249.429 394.879 249.429C399.289 249.429 403.636 250.374 407.921 252.264C412.268 254.091 416.143 256.737 419.546 260.203L410.378 269.465C408.173 267.259 405.716 265.558 403.006 264.361C400.36 263.164 397.651 262.566 394.879 262.566C392.043 262.566 389.366 263.133 386.845 264.267C384.388 265.338 382.214 266.818 380.324 268.709C378.497 270.536 377.048 272.71 375.977 275.23C374.906 277.75 374.37 280.428 374.37 283.263C374.37 286.098 374.906 288.776 375.977 291.296C377.048 293.754 378.497 295.927 380.324 297.818C382.214 299.645 384.388 301.094 386.845 302.165C389.366 303.236 392.043 303.772 394.879 303.772C398.029 303.772 400.927 303.11 403.573 301.787C406.283 300.401 408.866 298.479 411.323 296.022L420.585 305.189Z" fill="black"/>
</g>
<mask id="mask2" mask-type="alpha" maskUnits="userSpaceOnUse" x="66" y="228" width="393" height="58">
<rect width="392.003" height="56.8257" transform="matrix(1 0 0 -1 66.755 285.125)" fill="white"/>
</mask>
<g mask="url(#mask2)">
<path d="M149.335 204.567V271.386H136.293V228.667L112.476 252.295L88.7543 228.667V271.386H75.6174V204.567H82.8946L112.476 233.96L142.152 204.567H149.335ZM199.227 272.047C195.069 272.047 191.005 271.26 187.036 269.685C183.066 268.109 179.506 265.904 176.356 263.069C173.269 260.171 170.78 256.705 168.89 252.673C167 248.577 166.054 244.009 166.054 238.969C166.054 234.621 166.873 230.431 168.512 226.399C170.213 222.367 172.544 218.838 175.505 215.814C178.467 212.727 181.964 210.269 185.996 208.442C190.028 206.615 194.439 205.701 199.227 205.701C203.449 205.701 207.544 206.521 211.514 208.159C215.546 209.797 219.074 212.097 222.099 215.058C225.186 218.019 227.643 221.548 229.47 225.643C231.361 229.675 232.306 234.117 232.306 238.969C232.306 243.253 231.487 247.38 229.849 251.35C228.21 255.319 225.911 258.847 222.949 261.935C220.051 265.022 216.554 267.479 212.459 269.307C208.426 271.134 204.016 272.047 199.227 272.047ZM199.227 218.649C196.392 218.649 193.746 219.185 191.289 220.256C188.831 221.327 186.689 222.808 184.862 224.698C183.035 226.525 181.586 228.667 180.514 231.125C179.443 233.582 178.908 236.197 178.908 238.969C178.908 241.741 179.443 244.356 180.514 246.813C181.586 249.27 183.035 251.413 184.862 253.24C186.689 255.067 188.831 256.516 191.289 257.587C193.809 258.595 196.455 259.099 199.227 259.099C202 259.099 204.583 258.564 206.977 257.493C209.434 256.422 211.577 254.973 213.404 253.145C215.231 251.318 216.68 249.207 217.751 246.813C218.822 244.356 219.358 241.741 219.358 238.969C219.358 236.197 218.822 233.582 217.751 231.125C216.68 228.667 215.2 226.525 213.309 224.698C211.482 222.808 209.34 221.327 206.883 220.256C204.488 219.185 201.937 218.649 199.227 218.649ZM266.044 272.047C263.146 272.047 260.342 271.638 257.633 270.819C254.924 270 252.372 268.834 249.978 267.322H250.072C248.371 266.251 246.859 265.085 245.536 263.825C244.213 262.565 243.299 261.651 242.795 261.084L252.624 252.011C253.065 252.578 253.758 253.271 254.703 254.09C255.711 254.847 256.845 255.603 258.105 256.359C259.366 257.052 260.689 257.65 262.075 258.154C263.461 258.658 264.784 258.91 266.044 258.91C267.115 258.91 268.187 258.784 269.258 258.532C270.329 258.28 271.305 257.902 272.187 257.398C273.07 256.831 273.794 256.107 274.361 255.225C274.928 254.342 275.212 253.24 275.212 251.917C275.212 251.413 275.023 250.877 274.645 250.31C274.33 249.68 273.731 249.018 272.849 248.325C272.03 247.632 270.864 246.908 269.352 246.152C267.84 245.333 265.95 244.482 263.682 243.6C261.035 242.592 258.578 241.521 256.31 240.387C254.042 239.189 252.057 237.803 250.356 236.228C248.718 234.653 247.426 232.857 246.481 230.841C245.599 228.825 245.158 226.494 245.158 223.847C245.158 221.138 245.662 218.618 246.67 216.287C247.678 213.892 249.096 211.845 250.923 210.143C252.813 208.379 255.05 207.025 257.633 206.079C260.279 205.071 263.178 204.567 266.328 204.567C268.029 204.567 269.825 204.788 271.715 205.229C273.668 205.67 275.558 206.237 277.385 206.93C279.213 207.623 280.914 208.442 282.489 209.387C284.127 210.269 285.482 211.183 286.553 212.128L278.425 222.335C277.228 221.516 275.999 220.76 274.739 220.067C273.668 219.5 272.439 218.964 271.053 218.46C269.667 217.956 268.25 217.704 266.8 217.704C264.154 217.704 262.075 218.24 260.563 219.311C259.114 220.319 258.389 221.8 258.389 223.753C258.389 224.635 258.641 225.454 259.145 226.21C259.712 226.903 260.437 227.565 261.319 228.195C262.264 228.762 263.335 229.297 264.532 229.801C265.729 230.305 266.989 230.778 268.313 231.219C272.093 232.668 275.275 234.149 277.858 235.661C280.441 237.11 282.521 238.685 284.096 240.387C285.671 242.025 286.773 243.82 287.404 245.774C288.097 247.664 288.443 249.743 288.443 252.011C288.443 254.784 287.876 257.398 286.742 259.856C285.608 262.313 284.033 264.455 282.016 266.282C280.063 268.046 277.701 269.464 274.928 270.535C272.219 271.543 269.258 272.047 266.044 272.047ZM330.883 204.567L360.654 271.386H346.194L340.807 259.288H315.573C314.754 261.179 313.84 263.226 312.832 265.432C311.887 267.574 311.036 269.559 310.28 271.386H295.915L325.307 204.567H330.883ZM334.947 246.152L328.142 230.841L321.338 246.152H334.947ZM372.145 271.386V205.229H385.187V271.386H372.145ZM458.811 260.328C455.094 264.045 451.061 266.944 446.714 269.023C442.429 271.039 437.893 272.047 433.104 272.047C428.001 272.047 423.37 271.102 419.211 269.212C415.053 267.259 411.493 264.707 408.532 261.557C405.634 258.406 403.397 254.815 401.822 250.783C400.247 246.75 399.459 242.623 399.459 238.402C399.459 233.487 400.373 228.951 402.2 224.792C404.09 220.634 406.579 217.074 409.666 214.113C412.816 211.088 416.408 208.757 420.44 207.119C424.536 205.418 428.757 204.567 433.104 204.567C437.515 204.567 441.862 205.512 446.147 207.403C450.494 209.23 454.369 211.876 457.771 215.341L448.604 224.603C446.399 222.398 443.942 220.697 441.232 219.5C438.586 218.303 435.877 217.704 433.104 217.704C430.269 217.704 427.591 218.271 425.071 219.405C422.614 220.476 420.44 221.957 418.55 223.847C416.723 225.674 415.274 227.848 414.202 230.368C413.131 232.889 412.596 235.567 412.596 238.402C412.596 241.237 413.131 243.915 414.202 246.435C415.274 248.892 416.723 251.066 418.55 252.956C420.44 254.784 422.614 256.233 425.071 257.304C427.591 258.375 430.269 258.91 433.104 258.91C436.255 258.91 439.153 258.249 441.799 256.926C444.509 255.54 447.092 253.618 449.549 251.161L458.811 260.328Z" fill="black"/>
</g>
<mask id="mask3" mask-type="alpha" maskUnits="userSpaceOnUse" x="0" y="86" width="393" height="57">
<rect width="392.111" height="55.8287" transform="matrix(1 0 0 -1 0.234497 142.562)" fill="white"/>
</mask>
<g mask="url(#mask3)">
<path d="M82.2633 94.9032V161.722H69.2209V119.003L45.4044 142.631L21.6825 119.003V161.722H8.54561V94.9032H15.8229L45.4044 124.296L75.0805 94.9032H82.2633ZM132.156 162.383C127.997 162.383 123.933 161.596 119.964 160.021C115.994 158.445 112.435 156.24 109.284 153.405C106.197 150.507 103.708 147.041 101.818 143.009C99.9277 138.913 98.9826 134.345 98.9826 129.305C98.9826 124.957 99.8017 120.767 101.44 116.735C103.141 112.703 105.472 109.174 108.434 106.15C111.395 103.063 114.892 100.605 118.924 98.7781C122.957 96.951 127.367 96.0374 132.156 96.0374C136.377 96.0374 140.472 96.8564 144.442 98.4946C148.474 100.133 152.003 102.433 155.027 105.394C158.114 108.355 160.572 111.884 162.399 115.979C164.289 120.011 165.234 124.453 165.234 129.305C165.234 133.589 164.415 137.716 162.777 141.686C161.139 145.655 158.839 149.183 155.878 152.271C152.979 155.358 149.482 157.815 145.387 159.642C141.355 161.47 136.944 162.383 132.156 162.383ZM132.156 108.985C129.32 108.985 126.674 109.521 124.217 110.592C121.759 111.663 119.617 113.144 117.79 115.034C115.963 116.861 114.514 119.003 113.443 121.461C112.372 123.918 111.836 126.533 111.836 129.305C111.836 132.077 112.372 134.692 113.443 137.149C114.514 139.606 115.963 141.749 117.79 143.576C119.617 145.403 121.759 146.852 124.217 147.923C126.737 148.931 129.383 149.435 132.156 149.435C134.928 149.435 137.511 148.9 139.905 147.829C142.363 146.758 144.505 145.308 146.332 143.481C148.159 141.654 149.608 139.543 150.679 137.149C151.751 134.692 152.286 132.077 152.286 129.305C152.286 126.533 151.751 123.918 150.679 121.461C149.608 119.003 148.128 116.861 146.238 115.034C144.41 113.144 142.268 111.663 139.811 110.592C137.417 109.521 134.865 108.985 132.156 108.985ZM198.973 162.383C196.074 162.383 193.27 161.974 190.561 161.155C187.852 160.336 185.3 159.17 182.906 157.658H183C181.299 156.587 179.787 155.421 178.464 154.161C177.141 152.901 176.227 151.987 175.723 151.42L185.552 142.347C185.993 142.914 186.686 143.607 187.631 144.426C188.639 145.182 189.774 145.939 191.034 146.695C192.294 147.388 193.617 147.986 195.003 148.49C196.389 148.994 197.712 149.246 198.973 149.246C200.044 149.246 201.115 149.12 202.186 148.868C203.257 148.616 204.234 148.238 205.116 147.734C205.998 147.167 206.722 146.443 207.289 145.561C207.856 144.678 208.14 143.576 208.14 142.253C208.14 141.749 207.951 141.213 207.573 140.646C207.258 140.016 206.659 139.354 205.777 138.661C204.958 137.968 203.793 137.244 202.28 136.488C200.768 135.668 198.878 134.818 196.61 133.936C193.964 132.928 191.506 131.857 189.238 130.722C186.97 129.525 184.985 128.139 183.284 126.564C181.646 124.989 180.354 123.193 179.409 121.177C178.527 119.161 178.086 116.83 178.086 114.183C178.086 111.474 178.59 108.954 179.598 106.622C180.606 104.228 182.024 102.181 183.851 100.479C185.741 98.7151 187.978 97.3605 190.561 96.4154C193.207 95.4073 196.106 94.9032 199.256 94.9032C200.957 94.9032 202.753 95.1238 204.643 95.5648C206.596 96.0059 208.487 96.5729 210.314 97.266C212.141 97.9591 213.842 98.7781 215.417 99.7232C217.055 100.605 218.41 101.519 219.481 102.464L211.353 112.671C210.156 111.852 208.928 111.096 207.667 110.403C206.596 109.836 205.368 109.3 203.982 108.796C202.595 108.292 201.178 108.04 199.729 108.04C197.082 108.04 195.003 108.576 193.491 109.647C192.042 110.655 191.317 112.136 191.317 114.089C191.317 114.971 191.569 115.79 192.073 116.546C192.64 117.239 193.365 117.901 194.247 118.531C195.192 119.098 196.263 119.633 197.46 120.137C198.658 120.641 199.918 121.114 201.241 121.555C205.021 123.004 208.203 124.485 210.786 125.997C213.37 127.446 215.449 129.021 217.024 130.722C218.599 132.361 219.702 134.156 220.332 136.11C221.025 138 221.371 140.079 221.371 142.347C221.371 145.119 220.804 147.734 219.67 150.191C218.536 152.649 216.961 154.791 214.945 156.618C212.991 158.382 210.629 159.8 207.856 160.871C205.147 161.879 202.186 162.383 198.973 162.383ZM263.811 94.9032L293.582 161.722H279.122L273.735 149.624H248.501C247.682 151.515 246.768 153.562 245.76 155.768C244.815 157.91 243.964 159.894 243.208 161.722H228.843L258.235 94.9032H263.811ZM267.875 136.488L261.071 121.177L254.266 136.488H267.875ZM305.073 161.722V95.5648H318.115V161.722H305.073ZM391.739 150.664C388.022 154.381 383.989 157.28 379.642 159.359C375.358 161.375 370.821 162.383 366.033 162.383C360.929 162.383 356.298 161.438 352.14 159.548C347.981 157.595 344.421 155.043 341.46 151.893C338.562 148.742 336.325 145.151 334.75 141.119C333.175 137.086 332.387 132.959 332.387 128.738C332.387 123.823 333.301 119.287 335.128 115.128C337.018 110.97 339.507 107.41 342.594 104.449C345.745 101.424 349.336 99.0932 353.368 97.455C357.464 95.7538 361.685 94.9032 366.033 94.9032C370.443 94.9032 374.791 95.8483 379.075 97.7385C383.422 99.5657 387.297 102.212 390.7 105.677L381.532 114.939C379.327 112.734 376.87 111.033 374.16 109.836C371.514 108.639 368.805 108.04 366.033 108.04C363.197 108.04 360.52 108.607 357.999 109.741C355.542 110.812 353.368 112.293 351.478 114.183C349.651 116.01 348.202 118.184 347.131 120.704C346.06 123.225 345.524 125.902 345.524 128.738C345.524 131.573 346.06 134.251 347.131 136.771C348.202 139.228 349.651 141.402 351.478 143.292C353.368 145.119 355.542 146.569 357.999 147.64C360.52 148.711 363.197 149.246 366.033 149.246C369.183 149.246 372.081 148.585 374.728 147.262C377.437 145.876 380.02 143.954 382.477 141.497L391.739 150.664Z" fill="black"/>
</g>
<path d="M109.263 150.732V217.55H96.2208V174.832L72.4043 198.459L48.6824 174.832V217.55H35.5455V150.732H42.8227L72.4043 180.124L102.08 150.732H109.263ZM159.155 218.212C154.997 218.212 150.933 217.424 146.964 215.849C142.994 214.274 139.434 212.069 136.284 209.233C133.197 206.335 130.708 202.87 128.818 198.837C126.928 194.742 125.983 190.174 125.983 185.133C125.983 180.786 126.802 176.596 128.44 172.564C130.141 168.531 132.472 165.003 135.433 161.979C138.395 158.891 141.892 156.434 145.924 154.607C149.957 152.78 154.367 151.866 159.155 151.866C163.377 151.866 167.472 152.685 171.442 154.323C175.474 155.961 179.003 158.261 182.027 161.222C185.114 164.184 187.571 167.712 189.399 171.808C191.289 175.84 192.234 180.282 192.234 185.133C192.234 189.418 191.415 193.545 189.777 197.514C188.138 201.484 185.839 205.012 182.877 208.099C179.979 211.187 176.482 213.644 172.387 215.471C168.354 217.298 163.944 218.212 159.155 218.212ZM159.155 164.814C156.32 164.814 153.674 165.349 151.217 166.42C148.759 167.492 146.617 168.972 144.79 170.862C142.963 172.69 141.514 174.832 140.443 177.289C139.371 179.746 138.836 182.361 138.836 185.133C138.836 187.906 139.371 190.52 140.443 192.978C141.514 195.435 142.963 197.577 144.79 199.404C146.617 201.232 148.759 202.681 151.217 203.752C153.737 204.76 156.383 205.264 159.155 205.264C161.928 205.264 164.511 204.728 166.905 203.657C169.363 202.586 171.505 201.137 173.332 199.31C175.159 197.483 176.608 195.372 177.679 192.978C178.75 190.52 179.286 187.906 179.286 185.133C179.286 182.361 178.75 179.746 177.679 177.289C176.608 174.832 175.128 172.69 173.237 170.862C171.41 168.972 169.268 167.492 166.811 166.42C164.417 165.349 161.865 164.814 159.155 164.814ZM225.972 218.212C223.074 218.212 220.27 217.802 217.561 216.983C214.852 216.164 212.3 214.999 209.906 213.486H210C208.299 212.415 206.787 211.25 205.464 209.99C204.141 208.729 203.227 207.816 202.723 207.249L212.552 198.176C212.993 198.743 213.686 199.436 214.631 200.255C215.639 201.011 216.773 201.767 218.034 202.523C219.294 203.216 220.617 203.815 222.003 204.319C223.389 204.823 224.712 205.075 225.972 205.075C227.044 205.075 228.115 204.949 229.186 204.697C230.257 204.445 231.233 204.067 232.116 203.563C232.998 202.996 233.722 202.271 234.289 201.389C234.856 200.507 235.14 199.404 235.14 198.081C235.14 197.577 234.951 197.042 234.573 196.475C234.258 195.845 233.659 195.183 232.777 194.49C231.958 193.797 230.792 193.072 229.28 192.316C227.768 191.497 225.878 190.647 223.61 189.764C220.963 188.756 218.506 187.685 216.238 186.551C213.97 185.354 211.985 183.968 210.284 182.393C208.646 180.817 207.354 179.022 206.409 177.006C205.527 174.989 205.086 172.658 205.086 170.012C205.086 167.303 205.59 164.782 206.598 162.451C207.606 160.057 209.024 158.009 210.851 156.308C212.741 154.544 214.978 153.189 217.561 152.244C220.207 151.236 223.106 150.732 226.256 150.732C227.957 150.732 229.753 150.952 231.643 151.393C233.596 151.834 235.486 152.402 237.314 153.095C239.141 153.788 240.842 154.607 242.417 155.552C244.055 156.434 245.41 157.348 246.481 158.293L238.353 168.5C237.156 167.681 235.927 166.925 234.667 166.231C233.596 165.664 232.368 165.129 230.981 164.625C229.595 164.121 228.178 163.869 226.728 163.869C224.082 163.869 222.003 164.404 220.491 165.475C219.042 166.483 218.317 167.964 218.317 169.917C218.317 170.799 218.569 171.619 219.073 172.375C219.64 173.068 220.365 173.729 221.247 174.359C222.192 174.926 223.263 175.462 224.46 175.966C225.657 176.47 226.918 176.943 228.241 177.384C232.021 178.833 235.203 180.313 237.786 181.826C240.369 183.275 242.449 184.85 244.024 186.551C245.599 188.189 246.702 189.985 247.332 191.938C248.025 193.828 248.371 195.908 248.371 198.176C248.371 200.948 247.804 203.563 246.67 206.02C245.536 208.477 243.961 210.62 241.945 212.447C239.991 214.211 237.629 215.629 234.856 216.7C232.147 217.708 229.186 218.212 225.972 218.212ZM290.811 150.732L320.582 217.55H306.122L300.735 205.453H275.501C274.682 207.343 273.768 209.391 272.76 211.596C271.815 213.738 270.964 215.723 270.208 217.55H255.843L285.235 150.732H290.811ZM294.875 192.316L288.071 177.006L281.266 192.316H294.875ZM332.073 217.55V151.393H345.115V217.55H332.073ZM418.739 206.493C415.022 210.21 410.989 213.108 406.642 215.188C402.357 217.204 397.821 218.212 393.033 218.212C387.929 218.212 383.298 217.267 379.14 215.377C374.981 213.423 371.421 210.872 368.46 207.721C365.562 204.571 363.325 200.98 361.75 196.947C360.175 192.915 359.387 188.788 359.387 184.566C359.387 179.652 360.301 175.115 362.128 170.957C364.018 166.799 366.507 163.239 369.594 160.277C372.744 157.253 376.336 154.922 380.368 153.284C384.464 151.582 388.685 150.732 393.033 150.732C397.443 150.732 401.79 151.677 406.075 153.567C410.422 155.394 414.297 158.041 417.7 161.506L408.532 170.768C406.327 168.563 403.87 166.862 401.16 165.664C398.514 164.467 395.805 163.869 393.033 163.869C390.197 163.869 387.519 164.436 384.999 165.57C382.542 166.641 380.368 168.122 378.478 170.012C376.651 171.839 375.202 174.013 374.131 176.533C373.059 179.053 372.524 181.731 372.524 184.566C372.524 187.402 373.059 190.079 374.131 192.6C375.202 195.057 376.651 197.231 378.478 199.121C380.368 200.948 382.542 202.397 384.999 203.468C387.519 204.539 390.197 205.075 393.033 205.075C396.183 205.075 399.081 204.413 401.727 203.09C404.437 201.704 407.02 199.782 409.477 197.325L418.739 206.493Z" fill="black"/>
</svg>
